<?xml version="1.0" encoding="UTF-8" standalone="no"?>
<!-- Created with Inkscape (http://www.inkscape.org/) -->

<svg
   xmlns:dc="http://purl.org/dc/elements/1.1/"
   xmlns:cc="http://creativecommons.org/ns#"
   xmlns:rdf="http://www.w3.org/1999/02/22-rdf-syntax-ns#"
   xmlns:svg="http://www.w3.org/2000/svg"
   xmlns="http://www.w3.org/2000/svg"
   xmlns:sodipodi="http://sodipodi.sourceforge.net/DTD/sodipodi-0.dtd"
   xmlns:inkscape="http://www.inkscape.org/namespaces/inkscape"
   width="21.47472mm"
   height="21.485575mm"
   viewBox="0 0 76.091528 76.129989"
   id="svg11346"
   version="1.1"
   inkscape:version="0.91 r13725"
   sodipodi:docname="golf-ball.svg">
  <defs
     id="defs11348" />
  <sodipodi:namedview
     id="base"
     pagecolor="#ffffff"
     bordercolor="#666666"
     borderopacity="1.0"
     inkscape:pageopacity="0.0"
     inkscape:pageshadow="2"
     inkscape:zoom="1.979899"
     inkscape:cx="50.699115"
     inkscape:cy="40.475476"
     inkscape:document-units="px"
     inkscape:current-layer="g10800"
     showgrid="false"
     fit-margin-top="0"
     fit-margin-left="0"
     fit-margin-right="0"
     fit-margin-bottom="0"
     inkscape:window-width="1855"
     inkscape:window-height="1056"
     inkscape:window-x="65"
     inkscape:window-y="24"
     inkscape:window-maximized="1" />
  <metadata
     id="metadata11351">
    <rdf:RDF>
      <cc:Work
         rdf:about="">
        <dc:format>image/svg+xml</dc:format>
        <dc:type
           rdf:resource="http://purl.org/dc/dcmitype/StillImage" />
        <dc:title></dc:title>
      </cc:Work>
    </rdf:RDF>
  </metadata>
  <g
     inkscape:label="Calque 1"
     inkscape:groupmode="layer"
     id="layer1"
     transform="translate(-207.66857,-168.58292)">
    <g
       id="g10800"
       transform="matrix(-0.25775134,0.701298,-0.701298,-0.25775134,1130.8247,133.07781)">
      <ellipse
         ry="49.55584"
         rx="49.589558"
         cy="1077.937"
         cx="501.08487"
         id="path10060"
         style="opacity:1;fill:#ffffff;fill-opacity:1;fill-rule:nonzero;stroke:#000000;stroke-width:2.70088387;stroke-linecap:butt;stroke-miterlimit:4;stroke-dasharray:none;stroke-dashoffset:0;stroke-opacity:1" />
      <path
         sodipodi:nodetypes="ccccccccc"
         inkscape:connector-curvature="0"
         id="path10127"
         d="m 501.45625,1084.2021 c -1.67026,-0.4899 -2.10531,-3.423 -1.65046,-4.6503 0.81217,-1.8674 2.08564,-3.9786 5.31321,-3.8177 1.88996,-0.014 4.08178,1.9639 3.88013,2.004 -0.003,10e-4 -2.26708,-0.2268 -3.13236,-0.1772 -0.95948,-0.1268 -3.01014,0.8985 -2.84374,0.9556 -1.05539,0.715 -1.49786,1.9303 -1.62804,2.877 -0.16165,1.1183 -0.0148,1.928 0.0613,2.8086 z"
         style="fill:#000000;fill-rule:evenodd;stroke:#000000;stroke-width:1px;stroke-linecap:butt;stroke-linejoin:miter;stroke-opacity:1" />
      <path
         sodipodi:nodetypes="ccccccccc"
         inkscape:connector-curvature="0"
         id="path10127-8"
         d="m 508.01917,1072.0052 c -1.67026,-0.4899 -2.10531,-3.423 -1.65046,-4.6503 0.81217,-1.8674 2.08564,-3.9786 5.31321,-3.8177 1.88996,-0.014 4.08178,1.9639 3.88013,2.004 -0.003,0 -2.26708,-0.2268 -3.13236,-0.1772 -0.95948,-0.1268 -3.01014,0.8985 -2.84374,0.9556 -1.05539,0.715 -1.49786,1.9303 -1.62804,2.877 -0.16165,1.1183 -0.0148,1.928 0.0613,2.8086 z"
         style="fill:#000000;fill-rule:evenodd;stroke:#000000;stroke-width:1px;stroke-linecap:butt;stroke-linejoin:miter;stroke-opacity:1" />
      <path
         sodipodi:nodetypes="ccccccccc"
         inkscape:connector-curvature="0"
         id="path10127-9"
         d="m 519.88847,1071.7526 c -1.67026,-0.4899 -2.10531,-3.423 -1.65046,-4.6503 0.81217,-1.8674 2.08564,-3.9786 5.31321,-3.8177 1.88996,-0.014 4.08178,1.9639 3.88013,2.004 -0.003,10e-4 -2.26708,-0.2268 -3.13236,-0.1772 -0.95948,-0.1268 -3.01014,0.8985 -2.84374,0.9556 -1.05539,0.715 -1.49786,1.9303 -1.62804,2.877 -0.16165,1.1183 -0.0148,1.928 0.0613,2.8086 z"
         style="fill:#000000;fill-rule:evenodd;stroke:#000000;stroke-width:1px;stroke-linecap:butt;stroke-linejoin:miter;stroke-opacity:1" />
      <path
         sodipodi:nodetypes="ccccccccc"
         inkscape:connector-curvature="0"
         id="path10127-6"
         d="m 514.33263,1084.1271 c -1.67026,-0.4899 -2.10531,-3.423 -1.65046,-4.6503 0.81217,-1.8674 2.08564,-3.9786 5.31321,-3.8177 1.88996,-0.014 4.08178,1.9639 3.88013,2.004 -0.003,10e-4 -2.26708,-0.2268 -3.13236,-0.1772 -0.95948,-0.1268 -3.01014,0.8985 -2.84374,0.9556 -1.05539,0.715 -1.49786,1.9303 -1.62804,2.877 -0.16165,1.1183 -0.0148,1.928 0.0613,2.8086 z"
         style="fill:#000000;fill-rule:evenodd;stroke:#000000;stroke-width:1px;stroke-linecap:butt;stroke-linejoin:miter;stroke-opacity:1" />
      <path
         sodipodi:nodetypes="ccccccccc"
         inkscape:connector-curvature="0"
         id="path10127-0"
         d="m 508.52426,1095.7438 c -1.67026,-0.4899 -2.10531,-3.423 -1.65046,-4.6503 0.81217,-1.8674 2.08564,-3.9786 5.31321,-3.8177 1.88996,-0.014 4.08178,1.9639 3.88013,2.004 -0.003,10e-4 -2.26708,-0.2268 -3.13236,-0.1772 -0.95948,-0.1268 -3.01014,0.8985 -2.84374,0.9556 -1.05539,0.715 -1.49786,1.9303 -1.62804,2.877 -0.16165,1.1183 -0.0148,1.928 0.0613,2.8086 z"
         style="fill:#000000;fill-rule:evenodd;stroke:#000000;stroke-width:1px;stroke-linecap:butt;stroke-linejoin:miter;stroke-opacity:1" />
      <path
         sodipodi:nodetypes="ccccccccc"
         inkscape:connector-curvature="0"
         id="path10127-7"
         d="m 500.94811,1107.6131 c -1.67026,-0.4899 -2.10531,-3.423 -1.65046,-4.6503 0.81217,-1.8674 2.08564,-3.9786 5.31321,-3.8177 1.88996,-0.014 4.08178,1.9639 3.88013,2.004 -0.003,0 -2.26708,-0.2268 -3.13236,-0.1772 -0.95948,-0.1268 -3.01014,0.8985 -2.84374,0.9556 -1.05539,0.715 -1.49786,1.9303 -1.62804,2.877 -0.16165,1.1183 -0.0148,1.928 0.0613,2.8086 z"
         style="fill:#000000;fill-rule:evenodd;stroke:#000000;stroke-width:1px;stroke-linecap:butt;stroke-linejoin:miter;stroke-opacity:1" />
      <path
         sodipodi:nodetypes="ccccccccc"
         inkscape:connector-curvature="0"
         id="path10127-01"
         d="m 520.64608,1095.9963 c -1.67026,-0.4899 -2.10531,-3.423 -1.65046,-4.6503 0.81217,-1.8674 2.08564,-3.9786 5.31321,-3.8177 1.88996,-0.014 4.08178,1.9639 3.88013,2.004 -0.003,10e-4 -2.26708,-0.2268 -3.13236,-0.1772 -0.95948,-0.1268 -3.01014,0.8985 -2.84374,0.9556 -1.05539,0.715 -1.49786,1.9303 -1.62804,2.877 -0.16165,1.1183 -0.0148,1.928 0.0613,2.8086 z"
         style="fill:#000000;fill-rule:evenodd;stroke:#000000;stroke-width:1px;stroke-linecap:butt;stroke-linejoin:miter;stroke-opacity:1" />
      <path
         sodipodi:nodetypes="ccccccccc"
         inkscape:connector-curvature="0"
         id="path10127-013"
         d="m 526.20193,1084.3795 c -1.67026,-0.4899 -2.10531,-3.423 -1.65046,-4.6503 0.81217,-1.8674 2.08564,-3.9786 5.31321,-3.8177 1.88996,-0.014 4.08177,1.9639 3.88013,2.004 -0.003,0 -2.26708,-0.2268 -3.13236,-0.1772 -0.95948,-0.1268 -3.01014,0.8985 -2.84374,0.9556 -1.05539,0.715 -1.49786,1.9303 -1.62804,2.877 -0.16165,1.1183 -0.0148,1.928 0.0613,2.8086 z"
         style="fill:#000000;fill-rule:evenodd;stroke:#000000;stroke-width:1px;stroke-linecap:butt;stroke-linejoin:miter;stroke-opacity:1" />
      <path
         sodipodi:nodetypes="ccccccccc"
         inkscape:connector-curvature="0"
         id="path10127-77"
         d="m 531.85215,1073.3431 c -1.41787,-0.1182 -2.2475,-2.3956 -2.08464,-3.453 0.34397,-1.6287 1.01732,-3.5281 3.62826,-3.9288 1.51112,-0.3214 3.59079,0.9029 3.43589,0.968 -0.002,0 -1.85261,0.1904 -2.53736,0.3721 -0.78913,0.056 -2.26301,1.2134 -2.12039,1.2318 -0.72781,0.7457 -0.88273,1.7915 -0.83164,2.5709 0.054,0.9221 0.30449,1.5463 0.50991,2.239 z"
         style="fill:#000000;fill-rule:evenodd;stroke:#000000;stroke-width:0.81740588px;stroke-linecap:butt;stroke-linejoin:miter;stroke-opacity:1" />
      <path
         sodipodi:nodetypes="ccccccccc"
         inkscape:connector-curvature="0"
         id="path10127-77-6"
         d="m 535.61726,1063.3924 c -1.12928,0.1805 -2.29538,-1.6678 -2.41076,-2.6362 -0.1053,-1.5102 -0.0165,-3.3262 1.9215,-4.2057 1.10115,-0.5882 2.99805,0.077 2.89253,0.1657 -0.002,5e-4 -1.39663,0.541 -1.88738,0.8393 -0.60068,0.2081 -1.48154,1.5287 -1.36646,1.5163 -0.39514,0.8061 -0.27625,1.7626 -0.0582,2.442 0.25303,0.8049 0.59056,1.3069 0.90877,1.8786 z"
         style="fill:#000000;fill-rule:evenodd;stroke:#000000;stroke-width:0.70022917px;stroke-linecap:butt;stroke-linejoin:miter;stroke-opacity:1" />
      <path
         sodipodi:nodetypes="ccccccccc"
         inkscape:connector-curvature="0"
         id="path10127-77-4"
         d="m 525.41612,1060.1101 c -0.99333,-0.3316 -1.2611,-2.3529 -0.99498,-3.201 0.47624,-1.2909 1.22556,-2.7517 3.1425,-2.6527 1.12216,-0.017 2.42996,1.3391 2.31036,1.3674 -10e-4,-3e-4 -1.34685,-0.1479 -1.86046,-0.1104 -0.57013,-0.084 -1.78444,0.6309 -1.68544,0.6696 -0.62436,0.4971 -0.88317,1.337 -0.9574,1.9904 -0.0924,0.7718 -0.003,1.3296 0.0455,1.9367 z"
         style="fill:#000000;fill-rule:evenodd;stroke:#000000;stroke-width:0.63993442px;stroke-linecap:butt;stroke-linejoin:miter;stroke-opacity:1" />
      <path
         sodipodi:nodetypes="ccccccccc"
         inkscape:connector-curvature="0"
         id="path10127-8-5"
         d="m 513.5997,1060.692 c -1.50867,-0.4374 -1.90163,-3.0563 -1.49079,-4.1521 0.7336,-1.6673 1.88387,-3.5523 4.79919,-3.4086 1.70712,-0.013 3.68689,1.7535 3.50475,1.7893 -0.003,0 -2.04775,-0.2025 -2.82932,-0.1582 -0.86666,-0.1133 -2.71893,0.8022 -2.56863,0.8532 -0.95328,0.6384 -1.35295,1.7234 -1.47053,2.5687 -0.14601,0.9985 -0.0134,1.7214 0.0554,2.5077 z"
         style="fill:#000000;fill-rule:evenodd;stroke:#000000;stroke-width:0.89803892px;stroke-linecap:butt;stroke-linejoin:miter;stroke-opacity:1" />
      <path
         sodipodi:nodetypes="ccccccccc"
         inkscape:connector-curvature="0"
         id="path10127-8-2"
         d="m 518.02378,1049.973 c -1.06435,-0.293 -1.34157,-2.0477 -1.05173,-2.7819 0.51754,-1.1171 1.32904,-2.3801 3.38576,-2.2838 1.20435,-0.01 2.60105,1.1748 2.47255,1.1988 -0.002,0 -1.44466,-0.1356 -1.99605,-0.106 -0.61141,-0.076 -1.91816,0.5375 -1.81212,0.5717 -0.67253,0.4277 -0.95449,1.1547 -1.03745,1.7211 -0.10301,0.669 -0.009,1.1533 0.0391,1.6801 z"
         style="fill:#000000;fill-rule:evenodd;stroke:#000000;stroke-width:0.61741996px;stroke-linecap:butt;stroke-linejoin:miter;stroke-opacity:1" />
      <path
         sodipodi:nodetypes="ccccccccc"
         inkscape:connector-curvature="0"
         id="path10127-8-0"
         d="m 506.22178,1049.4271 c -1.31951,-0.3029 -1.66321,-2.1166 -1.30387,-2.8755 0.64162,-1.1548 1.64767,-2.4602 4.19748,-2.3607 1.49308,-0.01 3.22464,1.2143 3.06533,1.2391 -0.002,0 -1.79101,-0.1402 -2.47459,-0.1095 -0.758,-0.078 -2.37803,0.5556 -2.24658,0.5909 -0.83376,0.4421 -1.18332,1.1936 -1.28616,1.779 -0.12771,0.6915 -0.0117,1.1922 0.0484,1.7367 z"
         style="fill:#000000;fill-rule:evenodd;stroke:#000000;stroke-width:0.69893265px;stroke-linecap:butt;stroke-linejoin:miter;stroke-opacity:1" />
      <path
         sodipodi:nodetypes="ccccccccc"
         inkscape:connector-curvature="0"
         id="path10127-8-29"
         d="m 501.211,1057.8108 c -0.97982,-0.052 -0.71077,-1.4517 -0.18988,-2.1106 0.86936,-1.0162 2.08006,-2.2056 4.11942,-2.4951 1.21441,-0.2231 2.25045,0.5045 2.11365,0.5473 -0.002,-3e-4 -1.41125,0.147 -1.97528,0.2704 -0.59157,0.047 -2.09774,0.7885 -2.00174,0.7977 -0.81017,0.4741 -1.32079,1.1257 -1.58101,1.6086 -0.31244,0.5714 -0.36949,0.9551 -0.48508,1.3817 z"
         style="fill:#000000;fill-rule:evenodd;stroke:#000000;stroke-width:0.54376763px;stroke-linecap:butt;stroke-linejoin:miter;stroke-opacity:1" />
      <path
         inkscape:transform-center-y="8.3132073"
         inkscape:transform-center-x="0.4652073"
         sodipodi:nodetypes="ccccccccc"
         inkscape:connector-curvature="0"
         id="path10127-8-29-0"
         d="m 495.07384,1046.8997 c -0.67569,-0.238 0.0473,-1.5672 0.66748,-2.1174 1.00331,-0.8364 2.31472,-1.7786 3.87224,-1.6752 0.94673,0.012 1.40554,0.9266 1.29217,0.9428 -0.002,-9e-4 -1.05754,-0.1241 -1.50476,-0.1105 -0.43758,-0.066 -1.78864,0.3776 -1.72397,0.4049 -0.75525,0.3133 -1.36535,0.8584 -1.73356,1.2848 -0.43895,0.5041 -0.62531,0.8715 -0.86951,1.2703 z"
         style="fill:#000000;fill-rule:evenodd;stroke:#000000;stroke-width:0.4778935px;stroke-linecap:butt;stroke-linejoin:miter;stroke-opacity:1" />
      <path
         sodipodi:nodetypes="ccccccccc"
         inkscape:connector-curvature="0"
         id="path10127-8-29-9"
         d="m 482.36956,1092.9307 c -0.82548,0 -0.39791,-1.4148 0.13846,-2.1026 0.88334,-1.0643 2.08144,-2.3206 3.85603,-2.7208 1.06396,-0.289 1.84122,0.3832 1.71885,0.4335 -0.002,-2e-4 -1.22044,0.2236 -1.7174,0.3776 -0.50949,0.079 -1.89513,0.903 -1.81483,0.9069 -0.75601,0.5185 -1.28262,1.1984 -1.57241,1.6959 -0.34677,0.5889 -0.44977,0.9761 -0.60864,1.4095 z"
         style="fill:#000000;fill-rule:evenodd;stroke:#000000;stroke-width:0.49932569px;stroke-linecap:butt;stroke-linejoin:miter;stroke-opacity:1" />
      <path
         sodipodi:nodetypes="ccccccccc"
         inkscape:connector-curvature="0"
         id="path10127-8-29-94"
         d="m 499.52221,1040.7317 c -0.86229,0.016 -0.72598,-1.0273 -0.31637,-1.5399 0.68956,-0.7946 1.66587,-1.7354 3.43227,-2.0608 1.04669,-0.2368 2.00776,0.2463 1.89093,0.2854 -0.002,-10e-5 -1.22618,0.1857 -1.71173,0.3072 -0.51517,0.067 -1.78206,0.6953 -1.69729,0.6967 -0.67619,0.3932 -1.07733,0.9 -1.27103,1.269 -0.23318,0.4371 -0.25586,0.7223 -0.32684,1.042 z"
         style="fill:#000000;fill-rule:evenodd;stroke:#000000;stroke-width:0.43760243px;stroke-linecap:butt;stroke-linejoin:miter;stroke-opacity:1" />
      <path
         sodipodi:nodetypes="ccccccccc"
         inkscape:connector-curvature="0"
         id="path10127-8-29-94-5"
         d="m 490.05837,1040.1818 c -0.85477,-0.1147 -0.56205,-1.1253 -0.0795,-1.57 0.80194,-0.681 1.90945,-1.4631 3.70475,-1.5173 1.07048,-0.076 1.94732,0.5475 1.82591,0.5684 -0.002,-4e-4 -1.24016,0 -1.73851,0.044 -0.51937,-0.012 -1.86679,0.4174 -1.78321,0.4316 -0.72794,0.2863 -1.20119,0.7265 -1.44854,1.0619 -0.29668,0.3968 -0.36228,0.6753 -0.48085,0.9805 z"
         style="fill:#000000;fill-rule:evenodd;stroke:#000000;stroke-width:0.43760243px;stroke-linecap:butt;stroke-linejoin:miter;stroke-opacity:1" />
      <path
         sodipodi:nodetypes="ccccccccc"
         inkscape:connector-curvature="0"
         id="path10127-8-29-94-1"
         d="m 510.64642,1040.8769 c -0.96332,-0.2366 -1.31367,-1.2409 -1.09992,-1.6339 0.39278,-0.5932 1.03794,-1.2488 2.86993,-1.0571 1.06451,0.07 2.37992,0.8347 2.26724,0.8396 -0.003,-7e-4 -1.29113,-0.1733 -1.77927,-0.194 -0.54785,-0.084 -1.67101,0.1739 -1.57488,0.2001 -0.57161,0.1954 -0.77857,0.5852 -0.81848,0.8978 -0.0515,0.3691 0.0606,0.6479 0.13512,0.9471 z"
         style="fill:#000000;fill-rule:evenodd;stroke:#000000;stroke-width:0.43444392px;stroke-linecap:butt;stroke-linejoin:miter;stroke-opacity:1" />
      <path
         sodipodi:nodetypes="ccccccccc"
         inkscape:connector-curvature="0"
         id="path10127-77-4-0"
         d="m 528.69325,1052.1643 c -0.79617,-0.1211 -1.40786,-1.7643 -1.38713,-2.5128 0.0837,-1.1507 0.33265,-2.4856 1.75794,-2.7027 0.81903,-0.1891 2.05616,0.7365 1.97433,0.7788 -8e-4,-10e-5 -1.01753,0.087 -1.38602,0.2003 -0.43507,0.019 -1.17816,0.805 -1.09765,0.8217 -0.35543,0.512 -0.37248,1.2527 -0.2926,1.8089 0.0909,0.6578 0.27132,1.1089 0.43144,1.6073 z"
         style="fill:#000000;fill-rule:evenodd;stroke:#000000;stroke-width:0.51318818px;stroke-linecap:butt;stroke-linejoin:miter;stroke-opacity:1" />
      <path
         sodipodi:nodetypes="ccccccccc"
         inkscape:connector-curvature="0"
         id="path10127-77-4-0-3"
         d="m 536.63027,1054.6986 c -0.81613,-0.088 -1.8919,-1.4925 -2.08825,-2.139 -0.251,-0.9948 -0.39322,-2.1522 0.94222,-2.3701 0.74877,-0.1807 2.2304,0.5916 2.16237,0.6297 -8.2e-4,1e-4 -0.97304,0.098 -1.30177,0.2027 -0.42109,0.031 -0.9228,0.7199 -0.83897,0.7326 -0.20048,0.4496 -0.003,1.0892 0.23659,1.5675 0.27959,0.5657 0.58719,0.9511 0.88856,1.3778 z"
         style="fill:#000000;fill-rule:evenodd;stroke:#000000;stroke-width:0.47393221px;stroke-linecap:butt;stroke-linejoin:miter;stroke-opacity:1" />
      <path
         sodipodi:nodetypes="ccccccccc"
         inkscape:connector-curvature="0"
         id="path10127-77-4-0-3-7"
         d="m 542.18734,1063.384 c -0.7353,-0.594 -1.51112,-2.6509 -1.59418,-3.412 -0.0809,-1.1395 -0.0376,-2.3721 1.2199,-1.7579 0.71386,0.2865 1.9568,1.9705 1.88868,1.9659 -7.6e-4,-4e-4 -0.90712,-0.5076 -1.22432,-0.6083 -0.39085,-0.231 -0.95439,0.1384 -0.87942,0.2031 -0.25135,0.3199 -0.16624,1.075 -0.0183,1.6967 0.1715,0.733 0.39576,1.3052 0.60812,1.9142 z"
         style="fill:#000000;fill-rule:evenodd;stroke:#000000;stroke-width:0.47393221px;stroke-linecap:butt;stroke-linejoin:miter;stroke-opacity:1" />
      <path
         sodipodi:nodetypes="ccccccccc"
         inkscape:connector-curvature="0"
         id="path10127-77-4-0-3-8"
         d="m 530.8848,1046.1776 c -0.5787,-0.2622 -1.34151,-1.627 -1.48073,-2.1845 -0.17798,-0.8454 -0.27883,-1.7937 0.6681,-1.65 0.53094,0.034 1.58154,0.9954 1.5333,1.0094 -5.9e-4,-10e-5 -0.68997,-0.1533 -0.92306,-0.1479 -0.29859,-0.076 -0.65434,0.3505 -0.5949,0.3804 -0.14215,0.3079 -0.002,0.86 0.16777,1.2946 0.19824,0.5132 0.41636,0.8906 0.63006,1.2991 z"
         style="fill:#000000;fill-rule:evenodd;stroke:#000000;stroke-width:0.35476464px;stroke-linecap:butt;stroke-linejoin:miter;stroke-opacity:1" />
      <path
         sodipodi:nodetypes="ccccccccc"
         inkscape:connector-curvature="0"
         id="path10127-8-2-8"
         d="m 522.10262,1043.2134 c -0.7921,-0.3945 -1.58963,-1.8303 -1.66069,-2.3695 -0.0585,-0.8086 0.0217,-1.6887 1.3869,-1.2994 0.77543,0.1738 2.09724,1.3282 2.02252,1.3277 -8.6e-4,7e-4 -0.98277,-0.3272 -1.32915,-0.3873 -0.42247,-0.1533 -1.05221,0.1352 -0.97154,0.1785 -0.28446,0.2378 -0.211,0.7721 -0.0652,1.2094 0.16886,0.5157 0.40064,0.9147 0.61715,1.3404 z"
         style="fill:#000000;fill-rule:evenodd;stroke:#000000;stroke-width:0.41901383px;stroke-linecap:butt;stroke-linejoin:miter;stroke-opacity:1" />
      <path
         sodipodi:nodetypes="ccccccccc"
         inkscape:connector-curvature="0"
         id="path10127-77-4-0-3-8-6"
         d="m 515.36127,1036.8389 c -0.69946,-0.1704 -1.60077,-0.9563 -1.75902,-1.2697 -0.19958,-0.4735 -0.30315,-1.0004 0.8472,-0.8787 0.64596,0.042 1.90593,0.6192 1.8469,0.6247 -7.2e-4,0 -0.83718,-0.1159 -1.12117,-0.1234 -0.3621,-0.055 -0.80404,0.1636 -0.73226,0.1829 -0.17937,0.1631 -0.0195,0.4736 0.17804,0.7205 0.23101,0.2915 0.48901,0.5092 0.74097,0.7439 z"
         style="fill:#000000;fill-rule:evenodd;stroke:#000000;stroke-width:0.29076037px;stroke-linecap:butt;stroke-linejoin:miter;stroke-opacity:1" />
      <path
         sodipodi:nodetypes="ccccccccc"
         inkscape:connector-curvature="0"
         id="path10127-8-29-94-4-6"
         d="m 494.68671,1035.4278 c -0.59823,0.02 -0.50365,-0.6675 -0.21947,-1.0005 0.47838,-0.5162 1.1557,-1.1271 2.38117,-1.3386 0.72617,-0.1536 1.39292,0.1596 1.31188,0.1847 -8e-4,0 -0.85069,0.1206 -1.18755,0.1999 -0.35741,0.045 -1.23633,0.4515 -1.17753,0.4523 -0.46911,0.2556 -0.74741,0.5846 -0.88179,0.8244 -0.16176,0.2839 -0.17751,0.4691 -0.22675,0.6768 z"
         style="fill:#000000;fill-rule:evenodd;stroke:#000000;stroke-width:0.29376188px;stroke-linecap:butt;stroke-linejoin:miter;stroke-opacity:1" />
      <path
         sodipodi:nodetypes="ccccccccc"
         inkscape:connector-curvature="0"
         id="path10127-8-29-94-4-6-7"
         d="m 504.55361,1035.6956 c -0.59823,0.02 -0.50365,-0.6675 -0.21947,-1.0005 0.47838,-0.5162 1.1557,-1.1271 2.38117,-1.3386 0.72617,-0.1536 1.39292,0.1596 1.31188,0.1847 -8e-4,0 -0.85069,0.1206 -1.18755,0.1999 -0.35741,0.045 -1.23633,0.4515 -1.17753,0.4523 -0.46911,0.2556 -0.74741,0.5846 -0.88179,0.8244 -0.16176,0.2839 -0.17751,0.4691 -0.22675,0.6768 z"
         style="fill:#000000;fill-rule:evenodd;stroke:#000000;stroke-width:0.29376188px;stroke-linecap:butt;stroke-linejoin:miter;stroke-opacity:1" />
      <path
         sodipodi:nodetypes="ccccccccc"
         inkscape:connector-curvature="0"
         id="path10127-60"
         d="m 488.88445,1106.6557 c -1.32409,-0.3981 -1.66898,-2.7816 -1.3084,-3.7789 0.64385,-1.5175 1.65339,-3.2331 4.21203,-3.1024 1.49826,-0.011 3.23582,1.5959 3.07597,1.6285 -0.002,0 -1.79723,-0.1843 -2.48317,-0.144 -0.76063,-0.103 -2.38628,0.7302 -2.25437,0.7766 -0.83666,0.581 -1.18742,1.5686 -1.29062,2.3379 -0.12815,0.9087 -0.0117,1.5667 0.0486,2.2823 z"
         style="fill:#000000;fill-rule:evenodd;stroke:#000000;stroke-width:0.80262291px;stroke-linecap:butt;stroke-linejoin:miter;stroke-opacity:1" />
      <path
         sodipodi:nodetypes="ccccccccc"
         inkscape:connector-curvature="0"
         id="path10127-60-9"
         d="m 477.55293,1104.6236 c -1.06204,-0.344 -1.33867,-2.4033 -1.04945,-3.2649 0.51642,-1.3112 1.32616,-2.7934 3.3784,-2.6805 1.20173,-0.01 2.5954,1.3789 2.46719,1.407 -0.002,0 -1.44153,-0.1592 -1.99171,-0.1244 -0.61009,-0.089 -1.914,0.6309 -1.8082,0.671 -0.67107,0.502 -0.95241,1.3552 -1.03518,2.0199 -0.10279,0.7851 -0.009,1.3536 0.039,1.9719 z"
         style="fill:#000000;fill-rule:evenodd;stroke:#000000;stroke-width:0.66815442px;stroke-linecap:butt;stroke-linejoin:miter;stroke-opacity:1" />
      <path
         sodipodi:nodetypes="ccccccccc"
         inkscape:connector-curvature="0"
         id="path10127-60-7"
         d="m 495.22329,1114.859 c -1.06366,-0.5095 -0.70823,-2.7509 -0.11178,-3.6349 0.99195,-1.335 2.36313,-2.8142 4.59572,-2.4204 1.33155,0.1499 2.4266,1.8212 2.27583,1.8342 -0.002,-2e-4 -1.54259,-0.362 -2.16202,-0.3979 -0.64587,-0.1765 -2.31861,0.4209 -2.21451,0.4779 -0.9031,0.4482 -1.48815,1.3243 -1.7931,2.0249 -0.36574,0.8268 -0.44504,1.4478 -0.59015,2.1162 z"
         style="fill:#000000;fill-rule:evenodd;stroke:#000000;stroke-width:0.7398904px;stroke-linecap:butt;stroke-linejoin:miter;stroke-opacity:1" />
      <path
         sodipodi:nodetypes="ccccccccc"
         inkscape:connector-curvature="0"
         id="path10127-60-5"
         d="m 489.84675,1118.8855 c -0.73864,-0.2701 -0.2044,-1.235 0.34919,-1.5953 0.90455,-0.5402 2.11127,-1.1265 3.74215,-0.8551 0.98288,0.1245 1.6065,0.9045 1.49163,0.9035 -0.002,-2e-4 -1.11606,-0.2269 -1.5773,-0.2701 -0.46438,-0.1058 -1.7926,0.081 -1.72116,0.1109 -0.73208,0.1561 -1.27615,0.5135 -1.58881,0.8065 -0.3734,0.3454 -0.50701,0.6137 -0.69568,0.8996 z"
         style="fill:#000000;fill-rule:evenodd;stroke:#000000;stroke-width:0.4276633px;stroke-linecap:butt;stroke-linejoin:miter;stroke-opacity:1" />
      <path
         sodipodi:nodetypes="ccccccccc"
         inkscape:connector-curvature="0"
         id="path10127-60-97"
         d="m 482.16121,1112.527 c -0.77502,-0.3294 -0.52104,-1.7414 -0.0889,-2.2949 0.71901,-0.8352 1.71365,-1.7587 3.33897,-1.4936 0.96924,0.1042 1.76942,1.1673 1.65973,1.1745 -10e-4,-10e-5 -1.12316,-0.24 -1.57395,-0.2672 -0.47034,-0.1161 -1.68621,0.2486 -1.61035,0.2853 -0.65619,0.2762 -1.08006,0.8248 -1.30049,1.2647 -0.26442,0.5191 -0.32083,0.9105 -0.425,1.3312 z"
         style="fill:#000000;fill-rule:evenodd;stroke:#000000;stroke-width:0.50139028px;stroke-linecap:butt;stroke-linejoin:miter;stroke-opacity:1" />
      <path
         sodipodi:nodetypes="ccccccccc"
         inkscape:connector-curvature="0"
         id="path10127-60-97-8"
         d="m 472.97901,1110.3544 c -0.70864,-0.2676 -0.47641,-1.4149 -0.0813,-1.8647 0.65743,-0.6786 1.56688,-1.429 3.053,-1.2136 0.88623,0.085 1.61788,0.9485 1.51758,0.9544 -9.1e-4,-10e-5 -1.02696,-0.1951 -1.43915,-0.2172 -0.43005,-0.094 -1.54179,0.202 -1.47243,0.2319 -0.59999,0.2244 -0.98756,0.6701 -1.18911,1.0276 -0.24177,0.4218 -0.29335,0.7398 -0.3886,1.0816 z"
         style="fill:#000000;fill-rule:evenodd;stroke:#000000;stroke-width:0.43216947px;stroke-linecap:butt;stroke-linejoin:miter;stroke-opacity:1" />
      <path
         sodipodi:nodetypes="ccccccccc"
         inkscape:connector-curvature="0"
         id="path10127-60-9-5"
         d="m 468.56612,1102.2048 c -0.79059,-0.1425 -1.22444,-1.6581 -1.11968,-2.3362 0.21332,-1.0406 0.61422,-2.2414 2.07808,-2.3803 0.848,-0.1408 1.9943,0.7522 1.90692,0.7873 -9.9e-4,10e-5 -1.03749,0.037 -1.42231,0.1241 -0.44164,-7e-4 -1.28004,0.6821 -1.2006,0.7007 -0.41631,0.4499 -0.51647,1.121 -0.49805,1.6291 0.0182,0.6004 0.1507,1.0169 0.25576,1.4758 z"
         style="fill:#000000;fill-rule:evenodd;stroke:#000000;stroke-width:0.49246058px;stroke-linecap:butt;stroke-linejoin:miter;stroke-opacity:1" />
      <path
         sodipodi:nodetypes="ccccccccccccccccccccccccscccc"
         inkscape:connector-curvature="0"
         id="path10549"
         d="m 546.07143,1065.4426 c 0.46324,1.7051 0.85598,2.6884 1.20536,5.3572 0.59598,3.6822 0.80417,7.2986 0.58036,10.2677 -0.56416,5.7988 -1.27881,7.3947 -2.67858,12.1876 -2.7269,6.602 -4.47055,9.3645 -7.67857,13.4821 -2.86571,3.5656 -7.00433,7.8454 -14.10714,12.0089 -5.19873,2.4122 -10.30312,4.8896 -19.10714,5.6697 -4.70039,0.1166 -8.82354,5e-4 -11.74108,-0.7144 0.75766,-1.4946 2.2085,-1.7991 3.61345,-2.4846 1.48741,-1.2966 2.73635,-2.7125 4.85021,-3.6958 l 3.29908,-1.4502 c 0.005,-1.4191 0.37769,-4.1925 1.67214,-5.1805 2.27804,-1.0003 3.54264,-1.5256 6.99307,-1.4988 -0.54001,-1.1109 -1.13224,-3.3295 -1.02811,-4.6015 0.58056,-1.9237 1.61369,-2.8802 3.37245,-3.9624 1.39048,-0.5368 2.37906,-1.4168 3.93629,-0.9416 l 2.53878,0.3422 c 5.55868,-1.5868 6.86966,-3.178 7.85086,-6.6157 0.0562,-1.2115 -0.23017,-2.423 0.27421,-3.6345 1.18763,-2.1579 1.85883,-3.3333 3.21428,-4.1487 l 1.82718,-1.6396 c -0.40842,-1.913 -0.38241,-3.566 0.20024,-6.4701 1.06226,-1.6712 1.70655,-2.3498 2.6046,-3.0357 0.60866,-0.013 -0.88647,0.098 2.02743,-0.9037 -0.0534,-0.3114 -0.36441,-1.7454 -0.40262,-2.989 -0.0293,-0.953 0.19634,-1.6685 0.22404,-3.0824 0.51015,-1.3476 0.92758,-1.8872 2.11037,-2.2258 1.09171,-0.5291 0.67901,-0.5905 3.0542,-0.9776 0.41686,-0.2114 0.66671,-0.453 1.29464,0.9372 z"
         style="fill:#000000;fill-rule:evenodd;stroke:#000000;stroke-width:1px;stroke-linecap:butt;stroke-linejoin:miter;stroke-opacity:1" />
      <ellipse
         transform="matrix(0.87971336,-0.47550436,0.7367461,0.6761695,0,0)"
         ry="2.2043767"
         rx="3.9397957"
         cy="1293.9835"
         cx="-502.95105"
         id="path10551"
         style="opacity:1;fill:#ffffff;fill-opacity:1;fill-rule:nonzero;stroke:none;stroke-width:2;stroke-linecap:butt;stroke-miterlimit:4;stroke-dasharray:none;stroke-dashoffset:0;stroke-opacity:1" />
      <ellipse
         transform="matrix(0.48579572,-0.87407238,0.99916978,0.04074012,0,0)"
         ry="3.7423627"
         rx="3.8549571"
         cy="1107.6444"
         cx="-1212.8783"
         id="path10551-3"
         style="opacity:1;fill:#ffffff;fill-opacity:1;fill-rule:nonzero;stroke:none;stroke-width:2;stroke-linecap:butt;stroke-miterlimit:4;stroke-dasharray:none;stroke-dashoffset:0;stroke-opacity:1" />
      <ellipse
         transform="matrix(0.48579572,-0.87407238,0.99916978,0.04074012,0,0)"
         ry="3.111922"
         rx="3.2055485"
         cy="1115.483"
         cx="-1219.6637"
         id="path10551-3-3"
         style="opacity:1;fill:#ffffff;fill-opacity:1;fill-rule:nonzero;stroke:none;stroke-width:2;stroke-linecap:butt;stroke-miterlimit:4;stroke-dasharray:none;stroke-dashoffset:0;stroke-opacity:1" />
      <ellipse
         inkscape:transform-center-y="1.0101525"
         inkscape:transform-center-x="1.2626907"
         transform="matrix(0.61316077,-0.78995814,0.98070527,0.19549215,0,0)"
         ry="2.6034751"
         rx="2.6960564"
         cy="1221.8402"
         cx="-1113.3219"
         id="path10551-3-3-8"
         style="opacity:1;fill:#ffffff;fill-opacity:1;fill-rule:nonzero;stroke:none;stroke-width:2;stroke-linecap:butt;stroke-miterlimit:4;stroke-dasharray:none;stroke-dashoffset:0;stroke-opacity:1" />
      <ellipse
         inkscape:transform-center-y="0.69755034"
         inkscape:transform-center-x="1.2653833"
         transform="matrix(0.73879774,-0.67392722,0.94876479,0.31598318,0,0)"
         ry="2.3814323"
         rx="2.3707051"
         cy="1337.1594"
         cx="-1034.108"
         id="path10551-3-3-8-3"
         style="opacity:1;fill:#ffffff;fill-opacity:1;fill-rule:nonzero;stroke:none;stroke-width:2;stroke-linecap:butt;stroke-miterlimit:4;stroke-dasharray:none;stroke-dashoffset:0;stroke-opacity:1" />
      <ellipse
         transform="matrix(0.34591309,-0.93826656,0.99358727,-0.1130678,0,0)"
         ry="3.111922"
         rx="3.2055485"
         cy="982.04865"
         cx="-1293.5082"
         id="path10551-3-3-7"
         style="opacity:1;fill:#ffffff;fill-opacity:1;fill-rule:nonzero;stroke:none;stroke-width:2;stroke-linecap:butt;stroke-miterlimit:4;stroke-dasharray:none;stroke-dashoffset:0;stroke-opacity:1" />
      <ellipse
         transform="matrix(0.45808394,-0.88890894,0.99370665,-0.11201385,0,0)"
         ry="2.1915808"
         rx="2.3606572"
         cy="1177.6102"
         cx="-1395.7352"
         id="path10551-3-3-7-9"
         style="opacity:1;fill:#ffffff;fill-opacity:1;fill-rule:nonzero;stroke:none;stroke-width:2;stroke-linecap:butt;stroke-miterlimit:4;stroke-dasharray:none;stroke-dashoffset:0;stroke-opacity:1" />
      <ellipse
         transform="matrix(0.4159831,-0.90937234,0.99122911,-0.13215466,0,0)"
         ry="2.3651307"
         rx="2.953301"
         cy="1117.0187"
         cx="-1372.0922"
         id="path10551-3-3-7-3"
         style="opacity:1;fill:#ffffff;fill-opacity:1;fill-rule:nonzero;stroke:none;stroke-width:2;stroke-linecap:butt;stroke-miterlimit:4;stroke-dasharray:none;stroke-dashoffset:0;stroke-opacity:1" />
      <ellipse
         transform="matrix(0.02711629,-0.99963229,0.9050061,-0.4253986,0,0)"
         ry="3.111922"
         rx="3.2055485"
         cy="631.30792"
         cx="-1360.9423"
         id="path10551-3-3-7-7"
         style="opacity:1;fill:#ffffff;fill-opacity:1;fill-rule:nonzero;stroke:none;stroke-width:2;stroke-linecap:butt;stroke-miterlimit:4;stroke-dasharray:none;stroke-dashoffset:0;stroke-opacity:1" />
      <ellipse
         transform="matrix(0.16420609,-0.98642605,0.9419069,-0.33587406,0,0)"
         ry="2.3184793"
         rx="2.9177673"
         cy="815.84509"
         cx="-1383.2294"
         id="path10551-3-3-7-3-8"
         style="opacity:1;fill:#ffffff;fill-opacity:1;fill-rule:nonzero;stroke:none;stroke-width:2;stroke-linecap:butt;stroke-miterlimit:4;stroke-dasharray:none;stroke-dashoffset:0;stroke-opacity:1" />
      <ellipse
         transform="matrix(-0.19441284,-0.9809198,0.78865331,-0.61483815,0,0)"
         ry="3.111922"
         rx="3.2055485"
         cy="357.04358"
         cx="-1325.5894"
         id="path10551-3-3-7-7-7"
         style="opacity:1;fill:#ffffff;fill-opacity:1;fill-rule:nonzero;stroke:none;stroke-width:2;stroke-linecap:butt;stroke-miterlimit:4;stroke-dasharray:none;stroke-dashoffset:0;stroke-opacity:1" />
      <ellipse
         transform="matrix(-0.43856485,-0.89869955,0.60365423,-0.79724624,0,0)"
         ry="2.7448392"
         rx="2.8297071"
         cy="20.273638"
         cx="-1209.6224"
         id="path10551-3-3-7-7-7-4"
         style="opacity:1;fill:#ffffff;fill-opacity:1;fill-rule:nonzero;stroke:none;stroke-width:2;stroke-linecap:butt;stroke-miterlimit:4;stroke-dasharray:none;stroke-dashoffset:0;stroke-opacity:1" />
      <ellipse
         inkscape:transform-center-y="-3.2198612"
         inkscape:transform-center-x="-4.7350901"
         transform="matrix(-0.04516929,-0.99897935,0.77781572,-0.62849241,0,0)"
         ry="1.8422459"
         rx="2.9355197"
         cy="614.96173"
         cx="-1468.5809"
         id="path10551-3-3-7-3-8-1"
         style="opacity:1;fill:#ffffff;fill-opacity:1;fill-rule:nonzero;stroke:none;stroke-width:2;stroke-linecap:butt;stroke-miterlimit:4;stroke-dasharray:none;stroke-dashoffset:0;stroke-opacity:1" />
      <path
         sodipodi:nodetypes="ccccccccc"
         inkscape:connector-curvature="0"
         id="path10127-60-90"
         d="m 495.63104,1095.1068 c -1.26334,-0.3072 -1.56755,-2.3985 -1.21144,-3.2906 0.63299,-1.3602 1.61817,-2.9076 4.06635,-2.8776 1.43449,-0.06 3.0805,1.3 2.92709,1.3341 -0.002,0 -1.71862,-0.1027 -2.37574,-0.044 -0.7271,-0.065 -2.29252,0.7239 -2.1668,0.7602 -0.8073,0.5407 -1.15391,1.4236 -1.26108,2.1058 -0.13261,0.8059 -0.0283,1.3826 0.0217,2.0121 z"
         style="fill:#000000;fill-rule:evenodd;stroke:#000000;stroke-width:0.73749965px;stroke-linecap:butt;stroke-linejoin:miter;stroke-opacity:1"
         inkscape:transform-center-x="-2.2475313"
         inkscape:transform-center-y="-3.1970716" />
    </g>
  </g>
</svg>
